<svg xmlns="http://www.w3.org/2000/svg" xmlns:xlink="http://www.w3.org/1999/xlink" width="381" height="381" viewBox="0 0 381 381">
  <defs>
    <linearGradient id="linear-gradient" x1="0.031" y1="0.836" x2="0.887" y2="0.222" gradientUnits="objectBoundingBox">
      <stop offset="0" stop-color="#f7faff"/>
      <stop offset="0.669" stop-color="#e0e6ff"/>
      <stop offset="1" stop-color="#e0e6ff"/>
    </linearGradient>
    <linearGradient id="linear-gradient-2" x1="0.768" y1="0.768" x2="0.071" y2="0.127" gradientUnits="objectBoundingBox">
      <stop offset="0" stop-color="#2485f3"/>
      <stop offset="1" stop-color="#81b9f9"/>
    </linearGradient>
    <clipPath id="clip-path">
      <path id="Caminho_5047" data-name="Caminho 5047" d="M1617.936,496.134a75.066,75.066,0,0,0-74.872-75.065v0a75.067,75.067,0,0,0-150.135,0v0l-.2,0a75.067,75.067,0,1,0,0,150.134q.98,0,1.955-.025v.025h150.135v-.025A75.068,75.068,0,0,0,1617.936,496.134Z" transform="translate(-1317.667 -346)" fill="url(#linear-gradient)"/>
    </clipPath>
  </defs>
  <g id="sad_mascot-square" transform="translate(-1034 -2875)">
    <rect id="Retângulo_88" data-name="Retângulo 88" width="381" height="381" transform="translate(1034 2875)" fill="none"/>
    <g id="Grupo_8055" data-name="Grupo 8055" transform="translate(0 48.061)">
      <g id="Grupo_7403" data-name="Grupo 7403" transform="translate(1076.172 2894.939)">
        <g id="Grupo_7387" data-name="Grupo 7387" transform="translate(0 0)">
          <g id="Grupo_7364" data-name="Grupo 7364" transform="translate(0)">
            <g id="Grupo_7340" data-name="Grupo 7340" transform="translate(0 0)">
              <g id="Grupo_7404" data-name="Grupo 7404" transform="translate(0 0)">
                <path id="Caminho_4975" data-name="Caminho 4975" d="M1617.936,496.134a75.066,75.066,0,0,0-74.872-75.065v0a75.067,75.067,0,0,0-150.135,0v0l-.2,0a75.067,75.067,0,1,0,0,150.134q.98,0,1.955-.025v.025h150.135v-.025A75.068,75.068,0,0,0,1617.936,496.134Z" transform="translate(-1317.667 -346)" fill="#fff" stroke="#2485f3" stroke-width="2"/>
              </g>
            </g>
          </g>
        </g>
        <path id="Retângulo_1126" data-name="Retângulo 1126" d="M0,0H21.009A21.009,21.009,0,0,1,42.017,21.009v0A21.009,21.009,0,0,1,21.009,42.017h0A21.009,21.009,0,0,1,0,21.009V0A0,0,0,0,1,0,0Z" transform="translate(105.282 185.692) rotate(45)" fill="url(#linear-gradient-2)"/>
      </g>
      <g id="Grupo_de_máscara_1" data-name="Grupo de máscara 1" transform="translate(1076.759 2895.939)" clip-path="url(#clip-path)">
        <path id="Caminho_4982" data-name="Caminho 4982" d="M5977.621-864.559a63.884,63.884,0,0,0-52.555-31.933,63.934,63.934,0,0,0-66.711,61.027" transform="translate(-5862.993 972.449)" fill="none" stroke="#f4f6ff" stroke-linecap="round" stroke-linejoin="round" stroke-width="8"/>
      </g>
      <circle id="Elipse_152" data-name="Elipse 152" cx="4.5" cy="4.5" r="4.5" transform="translate(1177.393 3065.839)" fill="#2485f3"/>
      <circle id="Elipse_153" data-name="Elipse 153" cx="4.5" cy="4.5" r="4.5" transform="translate(1267.393 3065.839)" fill="#2485f3"/>
      <path id="Caminho_5319" data-name="Caminho 5319" d="M1311.474,3416.508s19.043-20.8,42.465,0" transform="translate(-105.742 -325.346)" fill="none" stroke="#2485f3" stroke-linecap="round" stroke-width="2"/>
    </g>
  </g>
</svg>
